<?xml version="1.0" standalone="no"?>
<!DOCTYPE svg PUBLIC "-//W3C//DTD SVG 20010904//EN"
 "http://www.w3.org/TR/2001/REC-SVG-20010904/DTD/svg10.dtd">
<svg version="1.0" xmlns="http://www.w3.org/2000/svg"
 width="7648.000000pt" height="1080.000000pt" viewBox="0 0 7648.000000 1080.000000"
 preserveAspectRatio="xMidYMid meet">

<g transform="translate(0.000000,1080.000000) scale(0.100000,-0.100000)"
fill="#000000" stroke="none">
<path d="M0 5400 l0 -5400 14601 0 c14217 0 14600 0 14587 19 -7 10 -1662
2116 -3678 4680 l-3665 4662 -3 -4655 -2 -4656 -270 0 -270 0 0 5360 0 5360
63 0 64 0 3976 -5054 3977 -5055 0 -330 0 -331 8958 1 8957 1 -160 32 c-1176
243 -2220 914 -2970 1911 -601 799 -963 1729 -1069 2745 -18 169 -40 624 -32
645 5 13 49 15 289 15 l284 0 7 -172 c18 -463 64 -798 162 -1188 243 -971 780
-1854 1509 -2481 209 -180 501 -387 720 -511 373 -211 789 -366 1220 -453 780
-157 1651 -113 2368 121 389 127 688 273 1042 509 575 384 1051 888 1408 1491
493 834 727 1762 704 2789 -14 593 -93 1066 -267 1585 -316 947 -879 1736
-1645 2305 -695 517 -1498 799 -2430 855 -93 5 -182 10 -197 10 l-28 0 0 265
0 265 98 0 c287 0 736 -56 1083 -135 905 -206 1720 -664 2399 -1344 627 -629
1095 -1426 1345 -2291 219 -757 280 -1611 174 -2435 -58 -452 -177 -915 -343
-1335 -77 -193 -263 -570 -371 -750 -251 -419 -485 -721 -814 -1051 -719 -718
-1541 -1166 -2506 -1365 l-160 -33 13673 0 13672 -1 0 5400 0 5400 -38230 0
-38230 0 0 -5400z m68660 1839 c2514 -3503 2534 -3530 2551 -3507 9 13 1147
1600 2529 3528 l2512 3505 64 3 64 3 0 -384 0 -383 -2526 -3525 c-1389 -1938
-2544 -3548 -2565 -3577 l-40 -52 -57 0 -57 1 -2310 3204 -2310 3205 -3 -4605
-2 -4605 -265 0 -265 0 0 5360 0 5360 73 0 73 0 2534 -3531z m-64335 3393
c570 -82 1002 -229 1432 -489 240 -145 404 -274 609 -478 582 -579 874 -1274
901 -2140 17 -579 -90 -1112 -316 -1570 -145 -292 -306 -519 -540 -759 -349
-357 -744 -607 -1236 -782 -66 -23 -119 -47 -117 -53 1 -6 547 -977 1212
-2157 666 -1180 1210 -2148 1210 -2150 0 -2 -136 -4 -303 -4 l-303 0 -1318
2341 c-725 1287 -1316 2342 -1314 2343 2 1 64 12 138 24 590 95 1138 357 1533
732 365 347 612 783 721 1273 54 240 61 317 61 667 -1 285 -3 342 -23 465 -74
471 -236 853 -512 1207 -98 126 -311 333 -447 435 -459 345 -1021 540 -1678
583 -101 6 -865 10 -2092 10 l-1933 0 0 265 0 266 2083 -4 c2074 -3 2083 -3
2232 -25z m10344 -49 c411 -1065 4061 -10527 4061 -10530 0 -2 -129 -2 -287
-1 l-286 3 -1880 4878 c-1035 2682 -1884 4874 -1888 4870 -4 -5 -852 -2196
-1884 -4870 -1033 -2674 -1881 -4867 -1885 -4873 -4 -7 -96 -9 -286 -8 l-280
3 2046 5302 2045 5303 247 0 247 0 30 -77z m17811 -4963 l0 -5040 1218 0
c1221 0 1555 7 1841 35 1035 103 1953 456 2676 1029 538 426 943 951 1233
1596 262 583 390 1174 418 1938 l7 182 310 0 310 0 -6 -232 c-24 -854 -193
-1609 -506 -2263 -315 -657 -821 -1273 -1406 -1712 -784 -589 -1802 -962
-2915 -1067 -341 -33 -522 -36 -2107 -36 l-1603 0 0 5305 0 5305 265 0 265 0
0 -5040z m27740 5017 c479 -65 843 -173 1220 -361 336 -168 605 -360 855 -611
470 -470 763 -1047 860 -1695 40 -265 49 -674 20 -942 -76 -723 -325 -1283
-797 -1792 -236 -254 -529 -473 -858 -640 -168 -85 -227 -111 -405 -177 -81
-30 -129 -52 -129 -61 1 -7 546 -978 1212 -2158 l1210 -2145 -301 -3 c-165 -1
-304 1 -308 5 -11 11 -2629 4664 -2629 4672 0 3 62 17 138 30 859 145 1539
580 1949 1249 235 382 355 810 370 1322 18 615 -124 1163 -415 1595 -108 161
-172 239 -305 374 -419 424 -982 695 -1642 790 -269 39 -403 41 -2397 41
l-1938 0 0 265 0 266 2083 -4 c1892 -3 2093 -5 2207 -20z"/>
</g>
</svg>
