<?xml version="1.0" standalone="no"?>
<!DOCTYPE svg PUBLIC "-//W3C//DTD SVG 20010904//EN"
 "http://www.w3.org/TR/2001/REC-SVG-20010904/DTD/svg10.dtd">
<svg version="1.0" xmlns="http://www.w3.org/2000/svg"
 width="7648.000000pt" height="1080.000000pt" viewBox="0 0 7648.000000 1080.000000"
 preserveAspectRatio="xMidYMid meet">

<g transform="translate(0.000000,1080.000000) scale(0.100000,-0.100000)"
fill="#ffffff" stroke="none">
<path d="M21290 5455 l0 -5345 270 0 270 0 2 4657 3 4656 3700 -4706 3700
-4707 67 0 68 0 0 355 0 354 -3963 5038 -3964 5038 -76 3 -77 3 0 -5346z"/>
<path d="M48200 10538 l0 -266 128 -6 c551 -29 1005 -114 1436 -271 787 -285
1500 -818 2009 -1500 535 -717 857 -1537 961 -2450 54 -467 45 -1030 -24
-1494 -135 -910 -517 -1768 -1096 -2461 -43 -52 -142 -160 -219 -239 -648
-666 -1437 -1098 -2294 -1257 -576 -106 -1187 -109 -1759 -8 -1224 215 -2308
984 -2990 2119 -376 627 -603 1311 -687 2066 -14 132 -35 470 -35 582 l0 57
-287 -2 -288 -3 3 -170 c11 -677 142 -1341 389 -1970 72 -184 270 -584 375
-760 371 -620 814 -1116 1364 -1530 744 -559 1555 -871 2498 -960 219 -21 804
-20 1027 0 1047 98 1922 465 2744 1151 157 131 445 417 579 574 514 603 890
1308 1106 2071 238 841 274 1858 99 2744 -242 1223 -886 2319 -1819 3094 -860
715 -1897 1105 -3047 1148 l-173 6 0 -265z"/>
<path d="M65970 5455 l0 -5345 265 0 265 0 2 4606 3 4606 2292 -3179 c1260
-1748 2301 -3191 2313 -3206 20 -25 27 -28 78 -25 l57 3 2562 3575 2563 3575
0 368 0 368 -74 -3 -75 -3 -2511 -3505 c-1382 -1928 -2515 -3509 -2520 -3513
-4 -4 -1142 1574 -2530 3507 l-2523 3516 -84 0 -83 0 0 -5345z"/>
<path d="M0 10456 l0 -265 2038 -4 c2251 -3 2120 0 2469 -68 594 -116 1115
-390 1491 -784 400 -419 623 -922 682 -1536 19 -191 8 -616 -19 -793 -43 -277
-112 -498 -231 -741 -117 -238 -268 -452 -454 -644 -409 -420 -967 -699 -1608
-804 -76 -12 -137 -25 -135 -29 1 -3 594 -1057 1317 -2342 l1315 -2336 303 0
c167 0 302 4 300 8 -1 5 -546 972 -1210 2149 -664 1177 -1210 2148 -1214 2157
-4 11 -1 16 10 16 25 0 272 94 403 154 323 146 629 354 882 600 520 507 806
1097 897 1856 22 179 25 639 6 805 -75 644 -277 1142 -656 1617 -487 611
-1230 1037 -2066 1187 -321 58 -185 55 -2442 58 l-2078 4 0 -265z"/>
<path d="M14126 10688 c-30 -73 -4069 -10544 -4074 -10560 -4 -17 14 -18 276
-18 l280 0 10 27 c25 71 3754 9719 3760 9729 4 7 854 -2185 1889 -4870 l1881
-4881 287 -3 c229 -2 286 0 282 10 -14 35 -4071 10547 -4079 10571 l-10 27
-244 0 -245 0 -13 -32z"/>
<path d="M31940 5415 l0 -5305 1598 0 c1514 0 1773 4 2062 30 1358 124 2539
623 3383 1430 953 910 1453 2121 1494 3618 l6 232 -309 0 -310 0 -12 -262
c-19 -426 -64 -752 -152 -1108 -203 -819 -656 -1595 -1249 -2137 -329 -301
-652 -520 -1066 -723 -617 -303 -1218 -461 -2015 -531 -80 -7 -624 -13 -1512
-16 l-1388 -5 0 5041 0 5041 -265 0 -265 0 0 -5305z"/>
<path d="M55920 10455 l0 -265 1938 0 c1990 0 2133 -2 2397 -41 1222 -176
2098 -956 2309 -2057 42 -219 51 -330 51 -622 -1 -319 -19 -478 -85 -736 -155
-609 -549 -1145 -1092 -1490 -341 -216 -788 -379 -1190 -435 -49 -7 -88 -15
-88 -18 0 -4 591 -1057 1314 -2341 l1314 -2335 307 -3 307 -2 -20 32 c-54 89
-2405 4265 -2409 4278 -3 12 14 22 69 39 114 36 312 118 443 184 761 380 1329
1044 1559 1822 98 332 137 625 137 1020 0 791 -213 1419 -674 1993 -389 484
-930 849 -1564 1056 -230 75 -415 116 -708 158 -149 22 -158 22 -2232 25
l-2083 4 0 -266z"/>
</g>
</svg>
