<?xml version="1.0" standalone="no"?>
<!DOCTYPE svg PUBLIC "-//W3C//DTD SVG 20010904//EN"
 "http://www.w3.org/TR/2001/REC-SVG-20010904/DTD/svg10.dtd">
<svg version="1.0" xmlns="http://www.w3.org/2000/svg"
 width="7648.000000pt" height="1080.000000pt" viewBox="0 0 7648.000000 1080.000000"
 preserveAspectRatio="xMidYMid meet">

<g transform="translate(0.000000,1080.000000) scale(0.100000,-0.100000)"
fill="#000000" stroke="none">
<path d="M0 10545 l0 -254 1913 -4 c2112 -3 1997 0 2344 -68 1087 -212 1883
-929 2124 -1914 86 -352 107 -812 55 -1186 -50 -358 -162 -680 -335 -963 -260
-428 -611 -753 -1060 -980 -298 -151 -588 -246 -914 -298 -87 -15 -137 -27
-135 -34 2 -6 597 -1067 1323 -2357 l1320 -2346 303 -1 c166 0 302 2 302 5 0
3 -547 975 -1216 2162 -669 1186 -1219 2164 -1221 2174 -3 11 4 18 24 23 139
35 515 203 702 315 660 393 1156 1022 1360 1724 157 537 183 1169 71 1727
-118 590 -396 1105 -835 1546 -515 518 -1205 851 -1995 964 -130 19 -210 20
-2132 20 l-1998 0 0 -255z"/>
<path d="M13939 10773 c-6 -16 -930 -2412 -2055 -5326 -1124 -2915 -2044
-5301 -2044 -5303 0 -2 126 -3 281 -2 l281 3 1889 4890 c1039 2690 1894 4901
1900 4915 l11 25 12 -25 c6 -13 859 -2225 1897 -4915 l1885 -4890 287 -3 287
-2 -13 32 c-8 18 -933 2417 -2058 5331 l-2044 5297 -252 0 -253 0 -11 -27z"/>
<path d="M21160 5470 l0 -5330 270 0 270 0 2 4689 3 4690 3725 -4740 3725
-4739 68 0 67 0 0 358 -1 357 -3950 5020 -3950 5020 -115 3 -114 3 0 -5331z"/>
<path d="M31890 5469 l0 -5330 1698 4 c1713 4 1755 5 2097 42 1012 111 1904
420 2650 918 244 163 444 326 664 541 291 286 498 542 715 886 468 739 729
1673 753 2698 l6 262 -310 0 -310 0 -6 -217 c-28 -1003 -289 -1852 -798 -2604
-737 -1087 -1988 -1791 -3469 -1953 -305 -34 -427 -36 -1797 -36 l-1383 0 0
5060 0 5060 -255 0 -255 0 0 -5331z"/>
<path d="M48250 10585 l0 -215 38 0 c76 0 361 -21 492 -36 539 -61 1038 -208
1500 -439 189 -95 287 -153 485 -286 675 -455 1185 -1049 1566 -1822 347 -705
519 -1480 519 -2337 -1 -1260 -396 -2390 -1158 -3310 -123 -148 -425 -450
-572 -572 -812 -670 -1663 -988 -2745 -1024 -744 -25 -1473 126 -2101 435
-1135 557 -2018 1625 -2404 2906 -137 456 -220 1000 -220 1448 l0 137 -292 0
-291 0 6 -217 c29 -995 293 -1912 790 -2738 564 -938 1415 -1689 2382 -2103
816 -349 1808 -469 2770 -336 832 115 1592 429 2270 939 668 503 1192 1140
1570 1910 217 441 353 833 449 1293 171 817 165 1756 -15 2552 -355 1564
-1350 2875 -2714 3576 -334 172 -663 296 -1048 396 l-202 53 -537 3 -538 3 0
-216z"/>
<path d="M56020 10545 l0 -255 1953 0 c1241 0 2011 -4 2112 -10 989 -65 1777
-482 2254 -1195 293 -438 425 -911 424 -1525 0 -309 -21 -494 -88 -756 -157
-616 -565 -1163 -1127 -1513 -334 -209 -767 -365 -1170 -422 -49 -7 -88 -16
-88 -19 0 -3 595 -1063 1323 -2355 l1322 -2350 304 -3 c245 -2 302 0 298 11
-2 7 -552 983 -1221 2169 -669 1186 -1216 2161 -1216 2165 0 5 33 19 73 32
230 73 558 231 770 371 388 254 727 604 952 981 222 373 353 767 412 1249 22
180 25 668 5 830 -52 422 -143 740 -308 1070 -479 957 -1434 1605 -2602 1765
-99 13 -378 15 -2247 15 l-2135 0 0 -255z"/>
<path d="M66140 5470 l0 -5330 265 0 265 0 0 4638 c1 4542 1 4637 19 4614 11
-12 1058 -1462 2327 -3222 l2307 -3201 65 3 65 3 2483 3465 c1366 1906 2497
3483 2514 3504 l30 40 0 408 0 409 -47 -3 -48 -3 -2495 -3482 c-1372 -1915
-2498 -3483 -2502 -3485 -4 -2 -1132 1565 -2508 3482 l-2501 3485 -119 3 -120
3 0 -5331z"/>
</g>
</svg>
