<?xml version="1.0" standalone="no"?>
<!DOCTYPE svg PUBLIC "-//W3C//DTD SVG 20010904//EN"
 "http://www.w3.org/TR/2001/REC-SVG-20010904/DTD/svg10.dtd">
<svg version="1.0" xmlns="http://www.w3.org/2000/svg"
 width="1080.000000pt" height="1080.000000pt" viewBox="0 0 1080.000000 1080.000000"
 preserveAspectRatio="xMidYMid meet">

<g transform="translate(0.000000,1080.000000) scale(0.100000,-0.100000)"
fill="#000000" stroke="none">
<path d="M3590 7840 l0 -130 968 0 c557 0 1006 -4 1060 -10 489 -52 880 -299
1076 -680 91 -178 125 -323 133 -565 4 -128 1 -196 -11 -275 -51 -333 -219
-613 -486 -809 -158 -117 -403 -219 -602 -251 -43 -7 -78 -17 -78 -23 0 -6
285 -516 632 -1134 l633 -1123 148 0 149 0 -25 43 c-276 479 -1147 2041 -1141
2046 5 4 38 18 74 30 179 63 381 188 530 328 369 347 524 860 430 1418 -50
292 -177 538 -393 762 -242 249 -534 402 -912 475 -107 21 -136 22 -1147 25
l-1038 4 0 -131z"/>
</g>
</svg>
