<?xml version="1.0" encoding="utf-8"?>
<!-- Generator: Adobe Illustrator 24.3.0, SVG Export Plug-In . SVG Version: 6.00 Build 0)  -->
<svg version="1.1" id="Слой_1" xmlns="http://www.w3.org/2000/svg" xmlns:xlink="http://www.w3.org/1999/xlink" x="0px" y="0px"
	 viewBox="0 0 1080 1080" style="fill: #ffffff; enable-background:new 0 0 1080 1080;" xml:space="preserve">
<g transform="translate(0.000000,1080.000000) scale(0.100000,-0.100000)">
	<path d="M3590,7840v-130h968c557,0,1006-4,1060-10c489-52,880-299,1076-680c91-178,125-323,133-565c4-128,1-196-11-275
		c-51-333-219-613-486-809c-158-117-403-219-602-251c-43-7-78-17-78-23s285-516,632-1134l633-1123h148h149l-25,43
		c-276,479-1147,2041-1141,2046c5,4,38,18,74,30c179,63,381,188,530,328c369,347,524,860,430,1418c-50,292-177,538-393,762
		c-242,249-534,402-912,475c-107,21-136,22-1147,25l-1038,4V7840z"/>
</g>
</svg>
