<?xml version="1.0" standalone="no"?>
<!DOCTYPE svg PUBLIC "-//W3C//DTD SVG 20010904//EN"
 "http://www.w3.org/TR/2001/REC-SVG-20010904/DTD/svg10.dtd">
<svg version="1.0" xmlns="http://www.w3.org/2000/svg"
 width="1080.000000pt" height="1080.000000pt" viewBox="0 0 1080.000000 1080.000000"
 preserveAspectRatio="xMidYMid meet">

<g transform="translate(0.000000,1080.000000) scale(0.100000,-0.100000)"
fill="#000000" stroke="none">
<path d="M3600 7840 l0 -130 979 0 c1061 0 1101 -2 1299 -55 438 -118 772
-423 892 -815 50 -165 55 -201 55 -430 0 -170 -4 -233 -18 -300 -103 -480
-451 -833 -952 -963 -55 -14 -124 -29 -153 -33 -36 -5 -52 -11 -50 -20 2 -7
287 -517 633 -1133 l630 -1120 148 -1 149 0 -20 33 c-11 17 -268 473 -572
1012 -304 539 -561 994 -571 1011 l-19 31 88 33 c545 203 902 648 972 1213 18
143 8 454 -19 579 -63 289 -188 516 -406 733 -276 277 -629 435 -1055 474 -71
7 -479 11 -1062 11 l-948 0 0 -130z"/>
</g>
</svg>
