<?xml version="1.0" standalone="no"?>
<!DOCTYPE svg PUBLIC "-//W3C//DTD SVG 20010904//EN"
 "http://www.w3.org/TR/2001/REC-SVG-20010904/DTD/svg10.dtd">
<svg version="1.0" xmlns="http://www.w3.org/2000/svg"
 width="1080.000000pt" height="1080.000000pt" viewBox="0 0 1080.000000 1080.000000"
 preserveAspectRatio="xMidYMid meet">

<g transform="translate(0.000000,1080.000000) scale(0.100000,-0.100000)"
fill="#000000" stroke="none">
<path d="M0 5400 l0 -5400 5400 0 5400 0 0 5400 0 5400 -5400 0 -5400 0 0
-5400z m5760 2546 c389 -77 673 -220 909 -456 206 -206 340 -447 401 -725 61
-281 44 -636 -45 -901 -134 -398 -461 -733 -875 -894 -60 -24 -110 -45 -110
-47 0 -2 258 -461 573 -1021 316 -559 579 -1027 586 -1039 l12 -23 -149 0
-148 0 -635 1126 c-349 620 -635 1130 -636 1133 -2 3 48 16 110 28 298 58 538
183 727 379 254 263 362 563 347 964 -13 351 -124 617 -352 845 -216 217 -503
345 -860 385 -54 6 -477 10 -1057 10 l-968 0 0 130 0 131 1043 -4 c932 -3
1051 -5 1127 -21z"/>
</g>
</svg>
