<?xml version="1.0" standalone="no"?>
<!DOCTYPE svg PUBLIC "-//W3C//DTD SVG 20010904//EN"
 "http://www.w3.org/TR/2001/REC-SVG-20010904/DTD/svg10.dtd">
<svg version="1.0" xmlns="http://www.w3.org/2000/svg"
 width="1080.000000pt" height="153.000000pt" viewBox="0 0 1080.000000 153.000000"
 preserveAspectRatio="xMidYMid meet">

<g transform="translate(0.000000,153.000000) scale(0.100000,-0.100000)"
fill="#000000" stroke="none">
<path d="M0 765 l0 -765 2065 0 c1736 0 2065 2 2058 14 -4 7 -235 302 -513
656 l-505 642 -3 -651 -2 -651 -40 0 -40 0 0 760 0 760 -1510 0 -1510 0 0
-765z m734 717 c80 -30 144 -72 201 -133 194 -208 127 -573 -130 -700 -36 -17
-65 -33 -65 -35 0 -2 76 -139 169 -304 l169 -300 -46 0 -47 0 -180 321 c-99
176 -181 326 -183 333 -2 9 12 16 39 20 107 17 220 104 268 206 23 48 26 68
26 160 0 93 -3 112 -26 161 -50 107 -131 172 -254 204 -47 12 -122 15 -357 15
l-298 0 0 41 0 40 328 -3 c307 -4 331 -5 386 -26z m1633 -705 c155 -402 285
-740 289 -749 5 -15 0 -18 -37 -18 l-44 0 -260 676 c-142 371 -262 677 -265
679 -4 2 -123 -297 -265 -665 -142 -368 -261 -674 -265 -680 -4 -6 -24 -10
-46 -8 l-39 3 247 640 c136 352 265 688 288 748 l41 107 37 0 37 0 282 -733z"/>
<path d="M3044 1523 c2 -5 254 -325 560 -713 l555 -705 1 -52 0 -53 1258 1
c1216 0 1255 1 1196 18 -190 54 -358 199 -449 386 -41 85 -75 219 -75 298 l0
57 39 0 38 0 12 -92 c23 -178 80 -297 201 -418 129 -129 282 -187 465 -177
235 13 426 140 531 352 60 122 77 196 77 330 0 134 -19 218 -76 335 -56 115
-168 229 -277 282 -77 37 -192 68 -254 68 -35 0 -36 1 -36 41 l0 42 74 -6
c312 -27 574 -267 640 -589 20 -99 20 -248 0 -346 -56 -269 -255 -490 -509
-563 -57 -17 21 -18 1863 -18 l1922 -1 0 765 c0 421 -3 765 -7 765 -5 0 -7
-26 -5 -57 l2 -58 -327 -455 c-181 -251 -345 -480 -366 -509 -30 -42 -41 -50
-52 -41 -7 6 -155 207 -327 446 l-313 435 -3 -640 -2 -641 -40 0 -40 0 0 760
0 760 -3141 0 c-1727 0 -3138 -3 -3135 -7z m1556 -723 l0 -710 208 0 c225 0
301 9 405 45 245 85 392 284 422 568 l6 57 46 0 46 0 -7 -77 c-24 -274 -153
-471 -383 -587 -28 -14 -91 -38 -140 -53 -85 -25 -98 -26 -385 -31 l-298 -4 0
751 0 751 40 0 40 0 0 -710z m3963 695 c245 -52 397 -273 359 -521 -23 -147
-105 -260 -235 -324 l-67 -33 39 -71 c21 -39 98 -174 169 -301 l131 -230 -36
-3 c-19 -2 -41 -1 -47 1 -11 4 -354 605 -371 647 -4 13 7 18 53 28 69 14 167
74 205 123 62 84 72 116 72 239 0 105 -2 120 -28 171 -30 63 -93 126 -156 158
-88 45 -138 51 -453 51 l-298 0 0 40 0 40 298 0 c219 0 315 -4 365 -15z"/>
<path d="M9362 1497 c13 -19 173 -243 357 -500 l334 -465 27 36 c15 21 176
245 358 500 l331 462 -715 0 -715 0 23 -33z"/>
</g>
</svg>
