<?xml version="1.0" standalone="no"?>
<!DOCTYPE svg PUBLIC "-//W3C//DTD SVG 20010904//EN"
 "http://www.w3.org/TR/2001/REC-SVG-20010904/DTD/svg10.dtd">
<svg version="1.0" xmlns="http://www.w3.org/2000/svg"
 width="1080.000000pt" height="153.000000pt" viewBox="0 0 1080.000000 153.000000"
 preserveAspectRatio="xMidYMid meet">

<g transform="translate(0.000000,153.000000) scale(0.100000,-0.100000)"
fill="#000000" stroke="none">
<path d="M0 1496 l0 -36 253 0 c280 0 366 -9 444 -45 71 -32 147 -105 180
-174 25 -51 28 -66 28 -166 0 -98 -3 -116 -26 -166 -50 -105 -135 -174 -260
-209 l-56 -15 186 -332 186 -332 43 -1 c23 0 42 2 42 4 0 2 -77 139 -171 306
-93 166 -169 303 -167 304 2 1 29 15 60 30 88 42 161 115 205 204 38 75 38 77
38 196 0 103 -4 130 -24 179 -45 114 -144 206 -276 258 -58 23 -72 24 -372 27
l-313 3 0 -35z"/>
<path d="M1967 1518 c-3 -7 -132 -341 -287 -743 -155 -402 -284 -736 -287
-742 -4 -9 7 -13 35 -13 23 0 42 5 45 12 2 7 120 312 261 677 141 365 261 671
265 680 11 19 -17 89 291 -711 l253 -658 39 0 c33 0 38 3 34 18 -3 10 -134
348 -289 752 l-284 735 -35 3 c-22 2 -37 -2 -41 -10z"/>
<path d="M2990 776 l0 -756 40 0 40 0 2 658 3 658 520 -663 c286 -364 526
-662 533 -663 8 0 12 16 12 48 l0 49 -558 709 c-307 390 -565 710 -575 712
-16 3 -17 -43 -17 -752z"/>
<path d="M4510 775 l0 -755 238 0 c335 0 446 19 615 106 97 51 218 172 270
271 44 85 74 194 83 304 l7 79 -47 0 -46 0 0 -45 c0 -75 -29 -195 -65 -270
-48 -99 -117 -180 -206 -241 -150 -102 -251 -124 -560 -124 l-219 0 0 715 0
715 -35 0 -35 0 0 -755z"/>
<path d="M6820 1501 c0 -28 1 -29 82 -41 150 -22 270 -82 372 -186 203 -209
253 -556 119 -831 -74 -151 -220 -283 -369 -332 -154 -51 -350 -37 -497 37
-110 55 -220 169 -280 292 -48 97 -77 205 -77 286 l0 44 -41 0 -42 0 6 -82
c12 -177 91 -345 221 -473 147 -144 266 -196 468 -203 154 -5 244 12 356 68
189 95 322 261 384 477 19 64 22 103 22 218 0 164 -13 224 -79 361 -108 224
-354 394 -569 394 l-76 0 0 -29z"/>
<path d="M7920 1496 l0 -34 313 -4 c343 -5 375 -10 469 -70 175 -111 222 -358
102 -535 -54 -78 -120 -123 -226 -153 l-58 -16 186 -329 c102 -182 187 -331
189 -333 2 -2 21 -2 43 0 l41 3 -170 300 c-93 165 -169 302 -169 305 0 3 29
20 64 37 122 60 202 159 230 283 61 269 -82 503 -346 565 -48 11 -134 15 -365
15 l-303 0 0 -34z"/>
<path d="M9350 776 l0 -756 35 0 35 0 0 652 c0 569 2 650 14 638 8 -8 156
-211 329 -450 172 -239 319 -435 325 -435 6 0 169 220 362 489 l351 488 -3 64
-3 63 -350 -489 c-192 -269 -354 -488 -358 -487 -5 1 -165 221 -356 487 -192
267 -356 486 -365 488 -15 3 -16 -58 -16 -752z"/>
</g>
</svg>
