<?xml version="1.0" standalone="no"?>
<!DOCTYPE svg PUBLIC "-//W3C//DTD SVG 20010904//EN"
 "http://www.w3.org/TR/2001/REC-SVG-20010904/DTD/svg10.dtd">
<svg version="1.0" xmlns="http://www.w3.org/2000/svg"
 width="1080.000000pt" height="153.000000pt" viewBox="0 0 1080.000000 153.000000"
 preserveAspectRatio="xMidYMid meet">

<g transform="translate(0.000000,153.000000) scale(0.100000,-0.100000)"
fill="#000000" stroke="none">
<path d="M0 1491 l0 -40 313 -3 312 -3 66 -31 c89 -43 142 -93 181 -172 31
-62 33 -73 33 -172 0 -96 -3 -110 -29 -164 -52 -106 -150 -182 -266 -207 l-50
-11 18 -32 c9 -18 93 -169 187 -334 l170 -302 44 0 c30 0 42 4 38 13 -2 6 -79
144 -170 305 l-166 294 69 34 c88 44 179 139 211 221 20 50 24 76 24 184 0
125 0 125 -38 201 -60 123 -165 206 -304 242 -49 13 -120 16 -352 16 l-291 0
0 -39z"/>
<path d="M1961 1508 c-280 -724 -571 -1480 -571 -1484 0 -3 19 -4 41 -2 l41 3
266 688 c146 378 268 684 272 680 4 -4 102 -258 220 -563 117 -305 235 -612
262 -682 l50 -128 40 0 c29 0 39 4 36 14 -2 8 -131 348 -288 755 l-285 741
-38 0 c-30 0 -39 -5 -46 -22z"/>
<path d="M2990 775 l0 -755 40 0 40 0 2 657 3 657 524 -667 c288 -367 528
-667 532 -667 5 0 9 25 9 55 l0 54 -557 710 c-351 446 -565 710 -575 711 -17
0 -18 -42 -18 -755z"/>
<path d="M4500 774 l0 -756 298 4 c335 5 381 13 538 88 93 45 211 148 269 235
64 97 115 268 115 386 l0 49 -45 0 -45 0 0 -37 c-2 -206 -119 -422 -284 -528
-140 -90 -262 -115 -552 -115 l-214 0 0 715 0 715 -40 0 -40 0 0 -756z"/>
<path d="M6820 1495 c0 -35 0 -35 45 -35 72 0 145 -19 235 -62 164 -78 301
-253 346 -443 24 -100 22 -277 -4 -376 -67 -250 -253 -434 -493 -485 -102 -22
-244 -13 -341 20 -237 83 -412 318 -434 586 l-7 80 -38 0 c-21 0 -40 -4 -44
-10 -3 -5 -1 -49 5 -97 52 -424 420 -720 824 -664 315 44 556 277 622 600 26
132 16 298 -25 421 -99 292 -353 500 -613 500 l-78 0 0 -35z"/>
<path d="M7912 1493 l3 -38 335 -5 335 -5 67 -32 c117 -55 186 -144 209 -268
38 -209 -83 -393 -294 -446 -26 -6 -47 -15 -45 -19 2 -4 86 -154 187 -334
l183 -326 44 0 c24 0 44 2 44 3 0 2 -75 136 -166 298 -92 162 -168 299 -171
305 -2 5 21 20 50 32 69 29 164 115 199 178 64 119 76 283 29 404 -48 125
-155 221 -292 265 -79 25 -86 25 -400 25 l-320 0 3 -37z"/>
<path d="M9340 776 l0 -756 40 0 40 0 0 651 c0 357 3 648 8 646 4 -3 151 -206
327 -451 176 -245 325 -445 332 -446 6 0 169 221 363 490 l351 490 -3 66 -3
66 -350 -490 c-192 -270 -353 -490 -357 -489 -4 1 -164 220 -355 487 -260 362
-354 486 -371 488 l-22 3 0 -755z"/>
</g>
</svg>
