<?xml version="1.0" encoding="utf-8"?>
<!-- Generator: Adobe Illustrator 24.3.0, SVG Export Plug-In . SVG Version: 6.00 Build 0)  -->
<svg version="1.1" id="Слой_1" xmlns="http://www.w3.org/2000/svg" xmlns:xlink="http://www.w3.org/1999/xlink" x="0px" y="0px"
	 viewBox="0 0 1080 153" style="enable-background:new 0 0 1080 153;" xml:space="preserve">
<g transform="translate(0.000000,153.000000) scale(0.100000,-0.100000)">
	<path d="M0,1491v-40l313-3l312-3l66-31c89-43,142-93,181-172c31-62,33-73,33-172c0-96-3-110-29-164c-52-106-150-182-266-207l-50-11
		l18-32c9-18,93-169,187-334L935,20h44c30,0,42,4,38,13c-2,6-79,144-170,305L681,632l69,34c88,44,179,139,211,221
		c20,50,24,76,24,184c0,125,0,125-38,201c-60,123-165,206-304,242c-49,13-120,16-352,16H0V1491z"/>
	<path d="M1961,1508C1681,784,1390,28,1390,24c0-3,19-4,41-2l41,3l266,688c146,378,268,684,272,680s102-258,220-563
		c117-305,235-612,262-682l50-128h40c29,0,39,4,36,14c-2,8-131,348-288,755l-285,741h-38C1977,1530,1968,1525,1961,1508z"/>
	<path d="M2990,775V20h40h40l2,657l3,657l524-667C3887,300,4127,0,4131,0c5,0,9,25,9,55v54l-557,710c-351,446-565,710-575,711
		C2991,1530,2990,1488,2990,775z"/>
	<path d="M4500,774V18l298,4c335,5,381,13,538,88c93,45,211,148,269,235c64,97,115,268,115,386v49h-45h-45v-37
		c-2-206-119-422-284-528c-140-90-262-115-552-115h-214v715v715h-40h-40V774z"/>
	<path d="M6820,1495c0-35,0-35,45-35c72,0,145-19,235-62c164-78,301-253,346-443c24-100,22-277-4-376c-67-250-253-434-493-485
		c-102-22-244-13-341,20c-237,83-412,318-434,586l-7,80h-38c-21,0-40-4-44-10c-3-5-1-49,5-97c52-424,420-720,824-664
		c315,44,556,277,622,600c26,132,16,298-25,421c-99,292-353,500-613,500h-78V1495z"/>
	<path d="M7912,1493l3-38l335-5l335-5l67-32c117-55,186-144,209-268c38-209-83-393-294-446c-26-6-47-15-45-19s86-154,187-334
		l183-326h44c24,0,44,2,44,3c0,2-75,136-166,298c-92,162-168,299-171,305c-2,5,21,20,50,32c69,29,164,115,199,178
		c64,119,76,283,29,404c-48,125-155,221-292,265c-79,25-86,25-400,25h-320L7912,1493z"/>
	<path d="M9340,776V20h40h40v651c0,357,3,648,8,646c4-3,151-206,327-451s325-445,332-446c6,0,169,221,363,490l351,490l-3,66l-3,66
		l-350-490c-192-270-353-490-357-489s-164,220-355,487c-260,362-354,486-371,488l-22,3V776z"/>
</g>
</svg>
